<?xml version="1.0" encoding="UTF-8"?>
<!DOCTYPE svg PUBLIC "-//W3C//DTD SVG 1.1//EN" "http://www.w3.org/Graphics/SVG/1.1/DTD/svg11.dtd">
<!-- Creator: CorelDRAW 2018 (64-Bit) -->
<svg xmlns="http://www.w3.org/2000/svg" xml:space="preserve" width="15px" height="10px" version="1.1" style="shape-rendering:geometricPrecision; text-rendering:geometricPrecision; image-rendering:optimizeQuality; fill-rule:evenodd; clip-rule:evenodd"
viewBox="0 0 16.4 10.93"
 xmlns:xlink="http://www.w3.org/1999/xlink">
 <defs>
  <style type="text/css">
   <![CDATA[
    .fil0 {fill:black;fill-rule:nonzero}
   ]]>
  </style>
 </defs>
 <g id="Слой_x0020_1">
  <metadata id="CorelCorpID_0Corel-Layer"/>
  <path class="fil0" d="M14.16 1.41c-1.96,1.64 -3.92,3.27 -5.88,4.9 0,0.01 -0.01,0.01 -0.01,0.02 -0.02,0.02 -0.05,0.04 -0.09,0.04l-7.58 -6.32c-0.01,-0.01 -0.02,-0.02 -0.02,-0.03 0,-0.01 0.01,-0.02 0.02,-0.02l15.18 0c0.05,0 0.06,0.02 0.01,0.05l-1.63 1.36z"/>
  <path class="fil0" d="M16.26 10.29c-1.76,-1.75 -3.52,-3.51 -5.28,-5.27 -0.01,-0.02 -0.01,-0.04 0,-0.06l5.34 -4.44c0.04,-0.04 0.07,-0.03 0.07,0.03 0.02,0.4 0.01,0.89 0.01,1.2 0,2.43 0,4.87 0,7.3 0,0.38 0.01,0.86 0,1.29 -0.01,0.06 -0.03,0.07 -0.07,0.03 -0.01,-0.02 -0.04,-0.04 -0.07,-0.08z"/>
  <path class="fil0" d="M0.07 0.5l5.35 4.46c0.02,0.02 0.02,0.03 0.01,0.04l-5.16 5.17 -0.24 0.23c-0.02,-0.02 -0.03,-0.04 -0.03,-0.06 0,-3.21 0,-6.41 0.01,-9.62 0,-0.07 -0.02,-0.28 0.06,-0.22z"/>
  <path class="fil0" d="M2.83 8.58l0.99 -0.98c0.3,-0.28 0.54,-0.53 0.8,-0.8 0.45,-0.45 0.9,-0.9 1.35,-1.35 0.01,-0.01 0.02,-0.01 0.03,0 0.65,0.54 1.31,1.09 1.96,1.63 0.25,0.21 0.41,0.07 0.64,-0.12 0.6,-0.5 1.2,-1 1.8,-1.51 0.01,-0.01 0.03,0 0.04,0.01l5.43 5.42c0.02,0.03 0.02,0.04 -0.02,0.04 -0.05,0 -0.11,0.01 -0.17,0.01 -4.99,0 -9.98,0 -14.97,0 -0.05,0 -0.1,0 -0.15,-0.01 -0.03,-0.01 -0.04,-0.02 -0.01,-0.05l2.28 -2.29z"/>
 </g>
</svg>
