<?xml version="1.0" encoding="UTF-8"?>
<!DOCTYPE svg PUBLIC "-//W3C//DTD SVG 1.1//EN" "http://www.w3.org/Graphics/SVG/1.1/DTD/svg11.dtd">
<!-- Creator: CorelDRAW 2018 (64-Bit) -->
<svg xmlns="http://www.w3.org/2000/svg" xml:space="preserve" width="13px" height="13px" version="1.1" style="shape-rendering:geometricPrecision; text-rendering:geometricPrecision; image-rendering:optimizeQuality; fill-rule:evenodd; clip-rule:evenodd"
viewBox="0 0 13.45 13.45"
 xmlns:xlink="http://www.w3.org/1999/xlink">
 <defs>
  <style type="text/css">
   <![CDATA[
    .fil0 {fill:black;fill-rule:nonzero}
   ]]>
  </style>
 </defs>
 <g id="Слой_x0020_1">
  <metadata id="CorelCorpID_0Corel-Layer"/>
  <path class="fil0" d="M2.47 0l8.51 0c0.64,0.03 1.19,0.48 1.32,1.11 0.02,0.1 0.03,0.27 0.03,0.52 0,0.77 0,1.53 0,2.29 0,0.02 0.02,0.04 0.04,0.04 0.63,0.15 1.05,0.69 1.09,1.32l0 0.63c-0.05,0.39 -0.24,0.64 -0.57,0.77 -0.16,0.06 -0.36,0.05 -0.54,0.05 -0.01,0 -0.02,0 -0.02,0.02 0,1.34 0,2.69 0,4.05 0,0.19 -0.01,0.34 -0.03,0.43 -0.11,0.49 -0.48,0.88 -0.95,1.04 -0.03,0.01 -0.08,0.02 -0.13,0.04 0,0 -0.01,0.01 -0.01,0.02 0.01,0.2 0.01,0.42 -0.07,0.61 -0.13,0.31 -0.38,0.48 -0.75,0.52l-1.16 0c-0.39,-0.04 -0.64,-0.23 -0.77,-0.57 -0.06,-0.17 -0.06,-0.36 -0.05,-0.54 0,-0.01 -0.01,-0.02 -0.02,-0.02l-3.32 0c-0.01,0 -0.03,0.01 -0.03,0.03 0.01,0.2 0.01,0.39 -0.06,0.57 -0.13,0.32 -0.39,0.49 -0.76,0.53l-1.15 0c-0.4,-0.03 -0.72,-0.28 -0.8,-0.67 -0.03,-0.13 -0.03,-0.31 -0.03,-0.45 0,-0.02 -0.01,-0.04 -0.03,-0.04 -0.52,-0.12 -0.93,-0.54 -1.05,-1.05 -0.02,-0.11 -0.04,-0.28 -0.04,-0.52 0,-1.33 0,-2.66 0,-3.98 0,-0.01 -0.01,-0.03 -0.03,-0.03 -0.19,0.01 -0.39,0.01 -0.56,-0.06 -0.32,-0.13 -0.49,-0.38 -0.53,-0.75l0 -0.64c0.03,-0.65 0.48,-1.16 1.1,-1.32 0.01,0 0.02,-0.01 0.02,-0.02 0,-0.79 0,-1.58 0,-2.37 0,-0.23 0.02,-0.39 0.04,-0.5 0.15,-0.61 0.69,-1.02 1.31,-1.06zm0.95 1.16c-0.95,0.27 -0.74,1.64 0.27,1.64 1.96,0.01 3.92,0.01 5.88,0 0.23,0 0.38,-0.01 0.47,-0.03 0.93,-0.27 0.73,-1.65 -0.23,-1.65 -2.01,0 -4.02,0 -6.02,0 -0.17,0 -0.29,0.01 -0.37,0.04zm-1.17 5.84c0,0.49 0.38,0.85 0.87,0.85 2.34,0 4.69,0 7.03,0 0.21,0 0.35,-0.01 0.42,-0.03 0.4,-0.1 0.65,-0.45 0.65,-0.86 0,-0.83 0,-1.66 0,-2.49 -0.01,-0.24 -0.02,-0.4 -0.05,-0.5 -0.11,-0.39 -0.45,-0.61 -0.86,-0.61 -2.34,0 -4.68,0 -7.03,0 -0.19,0 -0.34,0.02 -0.43,0.04 -0.43,0.12 -0.61,0.48 -0.61,0.92 0,0.49 0,1.38 0.01,2.68zm2.23 2.81c0,-0.46 -0.37,-0.84 -0.84,-0.84 -0.46,0 -0.83,0.38 -0.83,0.84 0,0.46 0.37,0.84 0.83,0.84 0.47,0 0.84,-0.38 0.84,-0.84zm6.17 0c0,-0.46 -0.38,-0.84 -0.84,-0.84 -0.46,0 -0.84,0.38 -0.84,0.84 0,0.46 0.38,0.84 0.84,0.84 0.46,0 0.84,-0.38 0.84,-0.84z"/>
 </g>
</svg>
