<?xml version="1.0" encoding="UTF-8"?>
<!DOCTYPE svg PUBLIC "-//W3C//DTD SVG 1.1//EN" "http://www.w3.org/Graphics/SVG/1.1/DTD/svg11.dtd">
<!-- Creator: CorelDRAW 2018 (64-Bit) -->
<svg xmlns="http://www.w3.org/2000/svg" xml:space="preserve" width="13px" height="13px" version="1.1" style="shape-rendering:geometricPrecision; text-rendering:geometricPrecision; image-rendering:optimizeQuality; fill-rule:evenodd; clip-rule:evenodd"
viewBox="0 0 11.94 11.94"
 xmlns:xlink="http://www.w3.org/1999/xlink">
 <defs>
  <style type="text/css">
   <![CDATA[
    .fil0 {fill:black;fill-rule:nonzero}
   ]]>
  </style>
 </defs>
 <g id="Слой_x0020_1">
  <metadata id="CorelCorpID_0Corel-Layer"/>
  <path class="fil0" d="M8.09 1.44c0,0.03 -0.03,0.05 -0.05,0.05l-3.79 0c-0.03,0 -0.05,-0.02 -0.05,-0.05l0 -1.39c0,-0.03 0.02,-0.05 0.05,-0.05l3.79 0c0.02,0 0.05,0.02 0.05,0.05l0 1.39z"/>
  <path class="fil0" d="M2.75 10.17l0 1.38c-0.01,0.23 -0.12,0.34 -0.35,0.35 -0.4,0.01 -1.49,0.21 -1.51,-0.4 -0.01,-0.44 -0.01,-0.87 -0.01,-1.3 0,-0.05 -0.02,-0.1 -0.07,-0.12 -1.01,-0.47 -0.83,-2.4 -0.73,-3.32 0.05,-0.42 0.22,-0.74 0.52,-0.98 0.02,-0.02 0.04,-0.05 0.05,-0.07 0.37,-0.98 0.74,-1.96 1.1,-2.93 0.28,-0.75 0.88,-1.04 1.66,-1.05 1.65,0 3.31,0 4.96,0 1.14,0 1.56,0.31 1.95,1.35 0.33,0.87 0.66,1.75 0.99,2.62 0.01,0.03 0.03,0.06 0.05,0.08 0.28,0.23 0.45,0.52 0.5,0.89 0.11,0.79 0.1,1.6 -0.02,2.43 -0.07,0.48 -0.31,0.81 -0.72,1.01 -0.02,0.01 -0.04,0.03 -0.04,0.06l-0.01 1.43c0,0.2 -0.11,0.31 -0.32,0.3l-1.21 0c-0.21,0 -0.32,-0.09 -0.32,-0.28l-0.01 -1.4c0,-0.05 -0.04,-0.1 -0.07,-0.1l-6.35 0.01c-0.02,0 -0.03,0.02 -0.04,0.04zm6.28 -7.04c-0.26,-0.26 -0.45,-0.35 -0.83,-0.35 -1.46,-0.01 -2.92,-0.01 -4.38,0 -0.54,0 -0.81,0.25 -1.03,0.75 -0.29,0.68 -0.6,1.34 -0.93,2 -0.08,0.15 -0.04,0.23 0.1,0.23l8.09 0c0.15,0 0.2,-0.07 0.13,-0.23l-1.01 -2.18c-0.06,-0.11 -0.1,-0.18 -0.14,-0.22zm-5.95 4.72c0,-0.41 -0.33,-0.75 -0.75,-0.75 -0.41,0 -0.74,0.34 -0.74,0.75 0,0.42 0.33,0.76 0.74,0.76 0.42,0 0.75,-0.34 0.75,-0.76zm7.32 0c0,-0.41 -0.33,-0.75 -0.75,-0.75 -0.41,0 -0.74,0.34 -0.74,0.75 0,0.42 0.33,0.76 0.74,0.76 0.42,0 0.75,-0.34 0.75,-0.76z"/>
 </g>
</svg>
