<?xml version="1.0" encoding="UTF-8"?>
<!DOCTYPE svg PUBLIC "-//W3C//DTD SVG 1.1//EN" "http://www.w3.org/Graphics/SVG/1.1/DTD/svg11.dtd">
<!-- Creator: CorelDRAW 2018 (64-Bit) -->
<svg xmlns="http://www.w3.org/2000/svg" xml:space="preserve" width="17px" height="13px" version="1.1" style="shape-rendering:geometricPrecision; text-rendering:geometricPrecision; image-rendering:optimizeQuality; fill-rule:evenodd; clip-rule:evenodd"
viewBox="0 0 17.45 13.35"
 xmlns:xlink="http://www.w3.org/1999/xlink">
 <defs>
  <style type="text/css">
   <![CDATA[
    .fil0 {fill:black;fill-rule:nonzero}
   ]]>
  </style>
 </defs>
 <g id="Слой_x0020_1">
  <metadata id="CorelCorpID_0Corel-Layer"/>
  <path class="fil0" d="M8.12 0l0.4 0c1.56,0.08 4.43,-0.2 5.32,1.05 0.67,0.93 1.14,1.95 1.41,3.06 0.05,0.18 0.11,0.19 0.19,0.02 0.32,-0.64 0.88,-0.89 1.67,-0.76 0.17,0.03 0.29,0.17 0.34,0.42l0 0.73c-0.14,0.64 -1.29,0.47 -1.82,0.49 -0.1,0 -0.11,0.03 -0.04,0.1 1.5,1.35 1.39,3.06 1.06,5.06 -0.08,0.52 -0.25,0.97 -0.5,1.37 -0.01,0.01 -0.04,0.03 -0.11,0.07l-0.31 0.18c-0.01,0.01 -0.02,0.06 -0.02,0.12 0.02,0.66 0.12,1.63 -1,1.4l-0.39 0.02c-0.99,0.09 -0.93,-0.55 -0.95,-1.21 0,-0.04 -0.03,-0.07 -0.06,-0.07 -3.04,0.19 -6.09,0.19 -9.13,0 -0.04,0 -0.07,0.03 -0.08,0.07 -0.12,0.6 0.08,1.31 -0.91,1.21l-0.76 0c-0.86,0 -0.69,-0.95 -0.71,-1.49 0,-0.04 -0.03,-0.08 -0.07,-0.09 -0.97,-0.36 -1.03,-2.81 -1.04,-3.64 -0.01,-1.26 0.3,-2.09 1.19,-2.95 0.1,-0.11 0.08,-0.16 -0.07,-0.16 -0.48,0 -1.62,0.14 -1.73,-0.49l0 -0.73c0.06,-0.28 0.22,-0.42 0.48,-0.44 0.71,-0.06 1.22,0.22 1.53,0.82 0.08,0.15 0.13,0.14 0.17,-0.02 0.18,-0.72 0.45,-1.44 0.81,-2.14 0.53,-1.02 1,-1.53 2.15,-1.79 0.62,-0.14 1.61,-0.21 2.98,-0.21zm-3.79 1.67c-0.57,0.9 -0.98,1.86 -1.23,2.88 -0.01,0.06 0.04,0.11 0.1,0.1 3.66,-0.28 7.32,-0.29 10.98,0 0.09,0 0.17,-0.08 0.15,-0.17 -0.25,-0.94 -0.62,-1.82 -1.12,-2.66 -0.13,-0.21 -0.32,-0.35 -0.57,-0.41 -1.85,-0.47 -4.08,-0.42 -5.99,-0.31 -0.74,0.05 -1.44,0.18 -2.09,0.4 -0.1,0.03 -0.19,0.09 -0.23,0.17zm0.3 5.85c0,-0.64 -0.55,-1.16 -1.22,-1.16 -0.67,0 -1.21,0.52 -1.21,1.16 0,0.64 0.54,1.15 1.21,1.15 0.67,0 1.22,-0.51 1.22,-1.15zm10.62 0c0,-0.64 -0.55,-1.16 -1.22,-1.16 -0.67,0 -1.21,0.52 -1.21,1.16 0,0.64 0.54,1.16 1.21,1.16 0.67,0 1.22,-0.52 1.22,-1.16zm-3.83 1.22c-0.09,-0.04 -0.19,-0.06 -0.29,-0.06 -1.59,0 -3.17,0 -4.76,0.03 -0.55,0.01 -0.68,0.23 -0.4,0.65 0.46,0.68 0.9,0.62 1.78,0.64 0.65,0.01 2.87,0.15 3.33,-0.21 0.22,-0.18 0.88,-0.83 0.34,-1.05z"/>
 </g>
</svg>
