<?xml version="1.0" encoding="UTF-8"?>
<!DOCTYPE svg PUBLIC "-//W3C//DTD SVG 1.1//EN" "http://www.w3.org/Graphics/SVG/1.1/DTD/svg11.dtd">
<!-- Creator: CorelDRAW 2018 (64-Bit) -->
<svg xmlns="http://www.w3.org/2000/svg" xml:space="preserve" width="10px" height="14px" version="1.1" style="shape-rendering:geometricPrecision; text-rendering:geometricPrecision; image-rendering:optimizeQuality; fill-rule:evenodd; clip-rule:evenodd"
viewBox="0 0 9.86 13.81"
 xmlns:xlink="http://www.w3.org/1999/xlink">
 <defs>
  <style type="text/css">
   <![CDATA[
    .fil0 {fill:white;fill-rule:nonzero}
   ]]>
  </style>
 </defs>
 <g id="Слой_x0020_1">
  <metadata id="CorelCorpID_0Corel-Layer"/>
  <path class="fil0" d="M2.74 4.91l0 0.05c0.12,0.62 0.38,1.24 0.69,1.84 0.33,0.65 0.64,1.2 0.91,1.64 0.27,0.43 0.58,0.87 0.94,1.25 0.17,0.18 0.36,0.32 0.57,0.42 0.23,0.11 0.4,0.06 0.64,-0.06 0.34,-0.16 0.69,-0.33 1.05,-0.37 0.4,-0.05 0.79,0.12 1.07,0.38 0.46,0.41 0.82,0.87 1.08,1.39 0.2,0.4 0.26,0.86 0,1.25 -0.23,0.29 -0.51,0.45 -0.84,0.64 -0.39,0.17 -0.7,0.31 -0.95,0.41 -0.01,0 -0.05,0.02 -0.12,0.04 -0.16,0.02 -0.33,0.03 -0.5,0 -0.47,-0.06 -0.92,-0.25 -1.32,-0.47 -0.66,-0.38 -1.26,-0.86 -1.8,-1.4 -0.57,-0.57 -1.09,-1.18 -1.54,-1.83 -1.07,-1.52 -1.91,-3.22 -2.34,-4.99 -0.19,-0.74 -0.29,-1.49 -0.28,-2.26 0.01,-0.54 0.09,-1.09 0.32,-1.59 0.13,-0.28 0.33,-0.48 0.62,-0.63 0.5,-0.25 0.97,-0.5 1.51,-0.6 0.88,-0.15 1.37,0.5 1.64,1.14 0.18,0.42 0.33,0.88 0.36,1.33 0.07,0.85 -0.62,1.19 -1.36,1.49 -0.4,0.17 -0.42,0.59 -0.35,0.93z"/>
 </g>
</svg>
