<?xml version="1.0" encoding="UTF-8"?>
<!DOCTYPE svg PUBLIC "-//W3C//DTD SVG 1.1//EN" "http://www.w3.org/Graphics/SVG/1.1/DTD/svg11.dtd">
<!-- Creator: CorelDRAW 2018 (64-Bit) -->
<svg xmlns="http://www.w3.org/2000/svg" xml:space="preserve" width="52px" height="27px" version="1.1" style="shape-rendering:geometricPrecision; text-rendering:geometricPrecision; image-rendering:optimizeQuality; fill-rule:evenodd; clip-rule:evenodd"
viewBox="0 0 51.62 26.8"
 xmlns:xlink="http://www.w3.org/1999/xlink">
 <defs>
  <style type="text/css">
   <![CDATA[
    .fil0 {fill:black;fill-rule:nonzero}
   ]]>
  </style>
 </defs>
 <g id="Слой_x0020_1">
  <metadata id="CorelCorpID_0Corel-Layer"/>
  <path class="fil0" d="M51.62 3.09c-0.01,6.58 -0.01,13.17 -0.01,19.75 0,0.22 -0.08,0.48 -0.23,0.78 -0.34,0.58 -0.83,0.93 -1.48,1.06l-0.18 0.02c-0.62,0.05 -1.26,0 -1.88,0.02 -0.04,0 -0.07,-0.04 -0.06,-0.08 0.37,-1.13 0.36,-2.27 -0.04,-3.39 -1.3,-3.58 -5.8,-4.67 -8.48,-1.92 -0.99,1.02 -1.49,2.27 -1.51,3.76 0,0.08 0.03,0.17 0.04,0.24 0.01,0.45 0.09,0.9 0.24,1.34 0,0.01 -0.01,0.02 -0.02,0.02 -0.33,0.05 -0.73,0.02 -0.98,0.02 -7.79,0 -15.57,0 -23.35,0 -0.02,0 -0.03,-0.02 -0.03,-0.04 1.1,-3.48 -1.46,-7.02 -5.07,-6.87 -2.7,0.11 -4.84,2.3 -4.95,5.05 -0.02,0.61 0.08,1.22 0.27,1.81 0.01,0.03 -0.01,0.06 -0.05,0.06 -0.48,-0.01 -0.96,-0.01 -1.45,-0.01 -1.02,0 -1.81,-0.47 -2.12,-1.48 -0.06,-0.18 -0.1,-0.44 -0.12,-0.78 -0.02,-0.51 -0.05,-1.02 -0.07,-1.52 -0.01,-0.25 -0.02,-0.6 -0.02,-1.07 0,-0.51 -0.02,-1.01 -0.06,-1.51 -0.02,-0.49 -0.01,-0.98 0.01,-1.47 0.03,-0.6 0.04,-1.21 0.05,-1.82 0,-0.16 0.01,-0.37 0.03,-0.63 0.03,-0.66 0.06,-1.17 0.14,-2.13l0.02 -0.47c0.01,-0.03 0.01,-0.06 0.01,-0.09 0.01,0 0.02,0 0.02,-0.01 0.26,-2.82 0.77,-5.58 1.54,-8.29l0.16 -0.44 0.33 -0.67 0.11 -0.18c0.16,-0.21 0.33,-0.44 0.51,-0.63 0.86,-0.91 1.93,-1.41 3.21,-1.51 0.3,-0.02 0.74,0 1.02,0 13.59,0 27.18,0 40.77,0 0.52,0 0.98,-0.01 1.45,0.12 1.32,0.37 2.19,1.57 2.23,2.96zm-45.9 -0.8c-0.75,0.2 -1.3,0.65 -1.66,1.35 -0.08,0.15 -0.14,0.3 -0.19,0.46 -0.9,3.12 -1.4,6.35 -1.59,9.6 0,0.02 0.01,0.03 0.02,0.05 0.02,0.01 0.03,0.01 0.05,-0.02l0.03 0 0 0.01c0,0.01 0,0.01 0,0.01 2.3,0.02 4.59,0.02 6.88,0 0.07,0 0.12,-0.02 0.17,-0.05l2.93 -2.27c0.03,-0.02 0.05,-0.06 0.05,-0.11 0,-0.13 0.02,-0.28 0.02,-0.4 0,-2.85 0,-5.72 -0.01,-8.62 0,-0.07 -0.03,-0.11 -0.1,-0.12 -1.91,-0.06 -3.84,-0.01 -5.75,-0.02 -0.26,0 -0.55,0.04 -0.85,0.13zm33.52 8.65c0,0.03 0.03,0.05 0.07,0.05 3.37,0.01 6.73,0 10.1,-0.01 0.02,0 0.11,-0.01 0.05,-0.04 0.03,-2.63 0.03,-5.25 0.01,-7.88 0.02,-0.38 -0.15,-0.64 -0.49,-0.79l-0.21 -0.1 -9.49 0c-0.03,0 -0.06,0.02 -0.06,0.06l0.02 8.71zm-24.76 -8.75c-0.02,0.02 -0.03,0.06 -0.03,0.11 0.01,1.58 0.01,4.28 0.01,8.11 0,0.18 -0.01,0.36 -0.01,0.52 0,0.03 0.02,0.06 0.06,0.06l9.74 0c0.02,0 0.04,-0.02 0.04,-0.04l0.01 -8.7c0,-0.02 -0.01,-0.04 -0.03,-0.05l-0.01 -0.01c-0.02,-0.01 -0.03,-0.02 -0.05,-0.02 -3.24,-0.01 -6.49,-0.06 -9.73,0.02zm11.86 0.02l-0.01 0.01c-0.01,0.01 -0.02,0.02 -0.02,0.04l0.02 8.66c0,0.05 0.01,0.07 0.05,0.07 3.59,0 7.16,0 10.74,0 0.04,0 0.08,-0.04 0.08,-0.08 0.01,-2.66 0.01,-5.32 0,-7.97 0,-0.19 -0.01,-0.44 -0.02,-0.73 -0.2,-0.03 -0.39,-0.05 -0.58,-0.05 -3.41,0 -6.81,0 -10.21,0.01 -0.02,0 -0.04,0.01 -0.05,0.04z"/>
  <path class="fil0" d="M12.12 24.64c-0.33,0.68 -0.81,1.23 -1.45,1.63l-0.71 0.34c-0.47,0.15 -0.96,0.21 -1.46,0.18 -2.04,-0.2 -3.5,-1.86 -3.41,-3.96 0.05,-1.05 0.57,-2.05 1.38,-2.71 2.1,-1.71 5.3,-0.62 5.89,2.09 0.19,0.84 0.1,1.65 -0.24,2.43z"/>
  <path class="fil0" d="M46.64 22.83c0.06,2.31 -1.68,4.07 -3.96,3.96 -2.31,-0.22 -3.81,-2.29 -3.33,-4.61 0.07,-0.27 0.16,-0.52 0.26,-0.77 0.35,-0.7 0.86,-1.25 1.53,-1.65 2.45,-1.34 5.27,0.31 5.5,3.07z"/>
 </g>
</svg>
