<?xml version="1.0" encoding="UTF-8"?>
<!DOCTYPE svg PUBLIC "-//W3C//DTD SVG 1.1//EN" "http://www.w3.org/Graphics/SVG/1.1/DTD/svg11.dtd">
<!-- Creator: CorelDRAW 2018 (64-Bit) -->
<svg xmlns="http://www.w3.org/2000/svg" xml:space="preserve" width="41px" height="27px" version="1.1" style="shape-rendering:geometricPrecision; text-rendering:geometricPrecision; image-rendering:optimizeQuality; fill-rule:evenodd; clip-rule:evenodd"
viewBox="0 0 40.1 26.41"
 xmlns:xlink="http://www.w3.org/1999/xlink">
 <defs>
  <style type="text/css">
   <![CDATA[
    .fil0 {fill:black;fill-rule:nonzero}
   ]]>
  </style>
 </defs>
 <g id="Слой_x0020_1">
  <metadata id="CorelCorpID_0Corel-Layer"/>
  <path class="fil0" d="M1.23 0l37.95 0c0.77,0.09 1.17,0.88 0.75,1.54 -0.08,0.11 -0.18,0.21 -0.3,0.29 -0.25,0.15 -0.43,0.14 -0.71,0.14 -1.68,0 -3.36,0 -5.05,0 -0.02,0 -0.04,0.01 -0.05,0.01l-0.01 0.02c-0.01,0 -0.01,0.01 -0.01,0.02 -0.01,0.43 0,0.85 0.03,1.28l3.17 0c1.4,0.15 2.46,1.07 2.73,2.47l0.04 0.32 0 17.63c0,-0.02 0,-0.03 0,-0.03 -0.01,-0.02 -0.02,-0.01 -0.02,0.01 -0.04,0.49 -0.2,0.94 -0.46,1.35 -0.34,0.51 -0.79,0.89 -1.35,1.13 -0.31,0.11 -0.63,0.19 -0.96,0.23l-34.21 0 -0.48 -0.09c-1.35,-0.38 -2.11,-1.28 -2.29,-2.68l0 -17.57 0.12 -0.65 0.05 -0.12 0.05 -0.17 0.12 -0.25 0.07 -0.11 0.04 -0.08c0.17,-0.25 0.37,-0.48 0.6,-0.69 0.48,-0.39 1.03,-0.62 1.65,-0.68 0.01,-0.01 0.02,-0.01 0.01,-0.02 0,0 0,-0.01 -0.01,-0.01l2.59 0c0.02,-0.43 0.03,-0.86 0.02,-1.28 0,-0.01 -0.01,-0.02 -0.02,-0.03l-0.01 0c-1.32,-0.02 -2.64,-0.02 -3.96,0 -0.76,0 -1.24,-0.85 -0.84,-1.5 0.16,-0.26 0.41,-0.42 0.75,-0.48zm6.07 1.98l-0.01 0.02c0,0 -0.01,0.01 -0.01,0.03 0,0.42 0.01,0.84 0.03,1.26 0.03,0 0.05,0.01 0.07,0.01 8.14,0 16.28,0 24.41,0 0.04,-0.43 0.05,-0.86 0.03,-1.28 0,-0.02 0,-0.03 -0.01,-0.04l-0.02 0c-0.01,-0.03 -22.38,-0.01 -24.44,-0.01 -0.01,0 -0.02,0 -0.05,0.01zm-5.3 21.63c0.1,0.43 0.34,0.69 0.73,0.79 0.23,0.05 0.53,0.03 0.79,0.03 0.29,0.01 0.48,0.01 0.58,0.01 10.48,0 20.96,0 31.44,0 0.34,0 0.79,-0.01 1.18,-0.01 0.66,0.01 1.07,-0.43 1.08,-1.1 0,-1.92 0,-7.4 -0.01,-16.45 0,-0.17 0.04,-0.61 -0.06,-0.95 -0.14,-0.33 -0.39,-0.55 -0.75,-0.66 -11.23,0 -22.45,0 -33.68,0 -0.6,0 -1.07,0.09 -1.27,0.71 -0.07,0.21 -0.04,0.49 -0.05,0.73 0,0.28 0,0.47 0,0.55 -0.01,7.37 -0.01,12.69 0,15.95 0,0.12 0.01,0.25 0.02,0.4z"/>
  <path class="fil0" d="M17.27 10.88c0,0.09 0.01,0.6 0.05,0.63l0 0.09c-0.03,0.1 -0.04,0.19 -0.03,0.29 -0.04,0.74 -0.22,1.47 -0.63,2.08l-0.05 0.08c-0.49,0.69 -1.16,1.11 -2,1.24 -0.45,0.06 -0.89,0.07 -1.34,0.03 -2.37,-0.26 -3.12,-2.6 -2.81,-4.62 0.09,-0.58 0.25,-1.07 0.51,-1.49l0.08 -0.12 0.14 -0.18c0.47,-0.54 0.95,-0.89 1.66,-1.05 0.62,-0.13 1.24,-0.14 1.86,-0.03 1.55,0.28 2.38,1.57 2.56,3.05zm-5.36 1.17c0.07,1 0.63,1.91 1.71,2.03 0.47,0.05 0.89,-0.05 1.25,-0.3 0.57,-0.37 0.83,-1.04 0.9,-1.69 0.1,-0.71 0.02,-1.37 -0.24,-1.98 -0.25,-0.59 -0.71,-0.94 -1.37,-1.07 -1.1,-0.17 -1.95,0.51 -2.18,1.55 -0.11,0.49 -0.13,0.97 -0.07,1.46z"/>
  <path class="fil0" d="M3.35 7.91c0,0 0,0.01 0,0.01 0,0.01 0.01,0.02 0.03,0.02l1.21 0c0.02,0 0.03,0.01 0.04,0.03 0.02,0.41 -0.01,0.93 0,1.25 0,0.43 0,0.87 0.01,1.3 0,0.02 0,0.03 0.01,0.04 0.02,0.02 0.03,0.02 0.03,0l3.27 -0.01c0.02,-0.84 0.03,-1.69 0.02,-2.55 0,-0.03 0.03,-0.06 0.06,-0.06 0.37,0 0.76,0 1.15,0 0.06,0 0.09,0.02 0.11,0.07l-0.01 4.09c-0.02,0.37 -0.02,0.73 0.01,1.09l0 1.98 -1.28 0c-0.02,0 -0.04,-0.02 -0.04,-0.04l0 -3.2c0,-0.03 -0.03,-0.06 -0.06,-0.06l-3.22 0c-0.03,0 -0.06,0.02 -0.06,0.05l-0.01 3.2c0,0.03 -0.02,0.05 -0.04,0.05l-1.26 0 0 -7.21c0,-0.02 0,-0.03 0.01,-0.04l0.02 -0.01z"/>
  <path class="fil0" d="M23.84 7.93l0.03 1.31c-0.04,0 -0.07,0 -0.09,0 -0.02,0.01 -0.03,0.01 -0.04,0.01l-2.5 0c-0.07,0 -0.04,0.05 -0.04,0.07 0.01,1.94 0.01,3.88 0,5.82 0,0.01 0,0.02 -0.01,0.03l-0.01 0.01 -1.29 -0.01 -0.01 -5.9c0,-0.01 -0.01,-0.02 -0.02,-0.02l-1.92 0c-0.03,-0.43 -0.04,-0.86 -0.03,-1.28 0,-0.02 0.02,-0.03 0.03,-0.03l5.9 -0.01z"/>
  <path class="fil0" d="M29.83 7.94l0 1.29c0,0.01 -0.01,0.02 -0.02,0.02l-3.96 0c-0.03,0.43 -0.03,0.86 -0.01,1.28 0,0.01 0.01,0.01 0.02,0 0.01,0.04 3.59,0.03 3.94,0.03 0.01,0 0.02,0.01 0.02,0.02l0.01 1.3 -3.94 -0.01c-0.03,0 -0.06,0.03 -0.06,0.06 0.01,0.62 0,1.23 0,1.85 0,0.02 0,0.04 0,0.05 0.01,0.05 0.03,0.06 0.06,0.03l3.92 0c0.01,0 0.02,0 0.02,0.02l0 1.29 -5.26 0c-0.02,0 -0.03,-0.01 -0.03,-0.03 0,-1.91 0,-3.83 0,-5.74 0,-0.03 -0.01,-0.04 -0.03,-0.05l0 -1.36 0.06 -0.04c0.01,-0.01 0.02,-0.01 0.03,-0.01l5.23 0z"/>
  <path class="fil0" d="M32.53 13.86l3.9 0c0.02,0 0.03,0 0.03,0.02l-0.01 1.28 -5.26 0.01c-0.01,0 -0.02,-0.01 -0.02,-0.02l0 -7.17c0,-0.03 0.02,-0.04 0.04,-0.04l1.2 0c0.02,0 0.05,0.02 0.05,0.05 0.01,0.46 0,1.03 0,1.39 0,1.48 0,2.96 0,4.44 0,0.04 0.03,0.09 0.07,0.04z"/>
  <path class="fil0" d="M11.47 22.66l-0.16 -0.04c-0.31,-0.15 -0.58,-0.38 -0.85,-0.58l-0.49 -0.35c-0.02,-0.01 -0.05,-0.01 -0.06,0 -0.38,0.27 -0.74,0.54 -1.11,0.8 -0.1,0.08 -0.22,0.13 -0.35,0.17 -0.25,0.06 -0.34,-0.21 -0.3,-0.4 0.02,-0.12 0.05,-0.23 0.08,-0.35 0.13,-0.39 0.26,-0.78 0.39,-1.17 0,-0.01 0,-0.03 -0.01,-0.03l-0.11 -0.09 -0.32 -0.23c-0.25,-0.19 -0.5,-0.38 -0.74,-0.57 -0.14,-0.1 -0.22,-0.21 -0.26,-0.36 -0.02,-0.08 0.01,-0.14 0.08,-0.18 0.11,-0.07 0.21,-0.11 0.35,-0.11 0.51,-0.03 1.01,-0.04 1.51,-0.04l0.01 -0.06 0.01 0c0,0 0.01,0 0.01,-0.01 0.13,-0.4 0.26,-0.81 0.4,-1.21 0.21,-0.63 0.58,-0.6 0.78,0.01 0.14,0.42 0.27,0.83 0.41,1.25 0,0.02 0.01,0.03 0.03,0.03 0.43,0 0.87,0 1.3,0 0.15,0 0.29,0.02 0.43,0.07 0.36,0.11 0.15,0.46 -0.04,0.6 -0.39,0.3 -0.78,0.59 -1.18,0.87 -0.02,0.02 -0.03,0.04 -0.02,0.06 0.14,0.42 0.28,0.83 0.41,1.24 0.07,0.23 0.16,0.7 -0.2,0.68z"/>
  <path class="fil0" d="M18.09 22.66l-0.27 -0.1 -1.21 -0.86c-0.03,-0.02 -0.06,-0.02 -0.08,0 -0.38,0.28 -0.77,0.55 -1.14,0.82 -0.14,0.1 -0.35,0.19 -0.51,0.12 -0.19,-0.2 -0.09,-0.5 -0.02,-0.73 0.13,-0.39 0.25,-0.78 0.38,-1.17 0.01,-0.01 0.01,-0.03 0,-0.04 -0.01,-0.01 -0.03,-0.02 -0.05,-0.03l-0.38 -0.28c-0.25,-0.19 -0.5,-0.38 -0.75,-0.57 -0.32,-0.26 -0.37,-0.63 0.15,-0.66 0.5,-0.02 1.01,-0.03 1.51,-0.01 0.03,0 0.04,-0.01 0.04,-0.04 0.14,-0.41 0.27,-0.81 0.41,-1.22 0.06,-0.17 0.18,-0.46 0.35,-0.5 0.27,-0.07 0.44,0.43 0.51,0.65 0.11,0.36 0.22,0.72 0.34,1.07 0,0.02 0.02,0.03 0.03,0.03 0.44,-0.01 0.88,-0.01 1.32,0 0.15,0.01 0.29,0.03 0.41,0.07 0.36,0.11 0.13,0.47 -0.05,0.6 -0.38,0.3 -0.78,0.59 -1.17,0.87 -0.02,0.02 -0.03,0.04 -0.02,0.06 0.15,0.44 0.29,0.88 0.43,1.32 0.06,0.19 0.12,0.62 -0.23,0.6z"/>
  <path class="fil0" d="M25 22.33c0.01,0.18 -0.08,0.36 -0.29,0.33l-0.08 -0.02c-0.12,-0.05 -0.23,-0.1 -0.3,-0.16 -0.37,-0.26 -0.73,-0.53 -1.1,-0.79 -0.02,-0.01 -0.04,-0.01 -0.06,0 -0.36,0.27 -0.73,0.53 -1.1,0.8 -0.1,0.07 -0.21,0.12 -0.33,0.16 -0.26,0.08 -0.37,-0.18 -0.33,-0.39 0.02,-0.12 0.05,-0.25 0.09,-0.37 0.12,-0.39 0.25,-0.77 0.38,-1.16 0,-0.01 0,-0.03 -0.01,-0.04 -0.36,-0.26 -0.72,-0.52 -1.07,-0.78 -0.09,-0.06 -0.16,-0.14 -0.23,-0.21 -0.37,-0.45 0.12,-0.52 0.42,-0.55 0.44,-0.04 0.92,-0.01 1.36,-0.01 0.02,0 0.03,0 0.03,-0.01l0.05 -0.14c0.11,-0.32 0.21,-0.65 0.32,-0.97 0.07,-0.18 0.18,-0.59 0.41,-0.64 0.28,-0.05 0.44,0.5 0.52,0.74 0.11,0.33 0.21,0.65 0.31,0.96 0.01,0.03 0.04,0.06 0.08,0.06 0.45,-0.01 0.89,0 1.32,0 0.18,0.01 0.33,0.04 0.44,0.1 0.33,0.18 -0.06,0.55 -0.26,0.7 -0.34,0.24 -0.69,0.49 -1.03,0.74 -0.02,0.01 -0.02,0.04 -0.02,0.06 0.12,0.35 0.24,0.72 0.36,1.09 0.06,0.2 0.1,0.37 0.12,0.5z"/>
  <path class="fil0" d="M31.55 20.41l-0.37 0.27c-0.03,0.01 -0.03,0.04 -0.03,0.07 0.15,0.44 0.3,0.89 0.43,1.34 0.08,0.26 0.08,0.67 -0.32,0.55 -0.14,-0.06 -0.22,-0.1 -0.24,-0.12 -0.4,-0.27 -0.78,-0.55 -1.16,-0.83 -0.02,-0.01 -0.04,-0.01 -0.06,0 -0.33,0.24 -0.65,0.47 -0.97,0.7 -0.2,0.14 -0.73,0.52 -0.8,0.02 0,-0.1 0,-0.18 0.02,-0.23 0.14,-0.48 0.29,-0.95 0.45,-1.41 0.01,-0.04 0,-0.07 -0.03,-0.09 -0.38,-0.29 -0.76,-0.56 -1.11,-0.83 -0.18,-0.14 -0.47,-0.42 -0.15,-0.61 0.06,-0.04 0.12,-0.06 0.17,-0.07 0.41,-0.04 0.95,-0.04 1.6,-0.02 0.02,0 0.04,-0.01 0.04,-0.04 0.14,-0.41 0.28,-0.83 0.41,-1.25 0.03,-0.07 0.06,-0.15 0.1,-0.23 0.33,-0.6 0.63,0.01 0.73,0.32 0.13,0.39 0.25,0.77 0.37,1.15 0.01,0.02 0.03,0.04 0.05,0.04 0.46,-0.01 0.92,0 1.38,0.01 0.5,0.01 0.73,0.31 0.27,0.67 -0.1,0.08 -0.36,0.28 -0.78,0.59z"/>
 </g>
</svg>
