<svg xmlns="http://www.w3.org/2000/svg" viewBox="0 0 283.46 283.46"><defs><style>.cls-1{fill:#fff;}</style></defs><g id="Слой_2" data-name="Слой 2"><g id="Слой_1-2" data-name="Слой 1"><circle class="cls-1" cx="141.73" cy="141.73" r="141.73"/><path d="M141.86,276.2C67.72,276.2,7.4,215.88,7.4,141.73S67.72,7.27,141.86,7.27,276.32,67.59,276.32,141.73,216,276.2,141.86,276.2Zm0-267.11C68.72,9.09,9.21,68.59,9.21,141.73S68.72,274.38,141.86,274.38s132.65-59.51,132.65-132.65S215,9.09,141.86,9.09Z"/><path d="M177.29,195.2c-1.63,3-3.76,4.55-6.42,4.55a5.62,5.62,0,0,1-4.45-2c-1-1.19-1.56-3.25-1.62-6.15h13.65a13.52,13.52,0,0,0-.76-4.71,8.72,8.72,0,0,0-3-4.11,8.59,8.59,0,0,0-11.13,1.44,10.84,10.84,0,0,0-2.57,7.5,9.9,9.9,0,0,0,2.63,7.09,8.45,8.45,0,0,0,6.43,2.77c3.75,0,6.6-1.92,8.59-5.79Zm-11-10.74a4.44,4.44,0,0,1,3.59-1.89,4.23,4.23,0,0,1,3.29,1.56,5.46,5.46,0,0,1,1.4,3.8,2.65,2.65,0,0,1-.4,1.71,1.39,1.39,0,0,1-1.14.5H164.8A9.43,9.43,0,0,1,166.32,184.46Z"/><path d="M162,174.18a3.72,3.72,0,0,0-1.28-2.93,5.33,5.33,0,0,0-3.61-1.12,6.34,6.34,0,0,0-5.17,2.65q-2.09,2.64-2.09,7.69v1.45h-3.3v1.76h3.3V198a1.44,1.44,0,0,1-.43,1.14,2.38,2.38,0,0,1-1.5.37h-1.62V201H158v-1.52h-2.62a2.55,2.55,0,0,1-1.71-.52,1.72,1.72,0,0,1-.44-1.34V183.68H158v-1.76h-4.77v-4.25a7.39,7.39,0,0,1,1.18-4.56,3.55,3.55,0,0,1,2.9-1.55,2.52,2.52,0,0,1,1.38.3.79.79,0,0,1,.46.62c0,.17-.2.41-.58.74a1.92,1.92,0,0,0-.74,1.56,1.87,1.87,0,0,0,.55,1.38,2,2,0,0,0,1.42.55,2,2,0,0,0,1.58-.68A2.66,2.66,0,0,0,162,174.18Z"/><path d="M143.65,198.9a3,3,0,0,1-1.68.64,1.32,1.32,0,0,1-1.16-.67,3.52,3.52,0,0,1-.46-2V186.41a4.5,4.5,0,0,0-1.78-3.61,8.07,8.07,0,0,0-5.18-1.46,9.84,9.84,0,0,0-6,1.66c-1.52,1.13-2.29,2.35-2.29,3.7a2.42,2.42,0,0,0,.7,1.77,2.29,2.29,0,0,0,1.69.7,2.09,2.09,0,0,0,1.54-.59,2,2,0,0,0,.6-1.49,2.68,2.68,0,0,0-.6-1.46,1.9,1.9,0,0,1-.47-.95c0-.36.29-.72.9-1.08a6.07,6.07,0,0,1,3.05-.73,4.64,4.64,0,0,1,3.16,1.09,3.39,3.39,0,0,1,1.24,2.65v2.89a24.55,24.55,0,0,0-9.29,2.63c-2.32,1.3-3.49,2.94-3.49,4.93a4,4,0,0,0,1.52,3.23,6.83,6.83,0,0,0,4.47,1.27,8.56,8.56,0,0,0,3.52-.68,12.27,12.27,0,0,0,3.4-2.72,6,6,0,0,0,1.66,2.65,3.66,3.66,0,0,0,2.33.75,4.54,4.54,0,0,0,3.29-1.52Zm-6.7-5.32a6.32,6.32,0,0,1-1.75,4.57A5.64,5.64,0,0,1,131,200a2.83,2.83,0,0,1-2.16-.88,3.43,3.43,0,0,1-.83-2.45,4.06,4.06,0,0,1,1.6-3.45c1.43-1.09,3.88-1.87,7.32-2.34Z"/><path d="M114.38,199.82a5.07,5.07,0,0,1-4.16-2.12c-1.08-1.4-1.61-3.46-1.61-6.18a11.85,11.85,0,0,1,1.82-6.92,4.33,4.33,0,0,1,3.77-1.82,3.78,3.78,0,0,1,2.15.55,1.56,1.56,0,0,1,.79,1.16,1,1,0,0,1-.31.61,2.58,2.58,0,0,0-.7,1.71,2.11,2.11,0,0,0,.62,1.51,2.18,2.18,0,0,0,3.19-.11,2.74,2.74,0,0,0,.68-1.88,4.5,4.5,0,0,0-1.84-3.44,7,7,0,0,0-4.64-1.54,8.92,8.92,0,0,0-6.53,2.78c-1.84,1.84-2.76,4.45-2.76,7.81a9.7,9.7,0,0,0,2.52,7,8.65,8.65,0,0,0,6.5,2.63q5.4,0,7-5.85l-1.32-.38C118.43,198.31,116.7,199.82,114.38,199.82Z"/><path d="M218.63,123v2.68c2.3.17,3.83.52,4.58,1a2.63,2.63,0,0,1,1.16,2.28,9.94,9.94,0,0,1-.82,3.87l-7.67,18.46-10.32-22.25a2.28,2.28,0,0,1-.24-1,2,2,0,0,1,.84-1.75,5.74,5.74,0,0,1,3.19-.63H211V123H193.25v2.68a7.57,7.57,0,0,1,3.29,1,5.77,5.77,0,0,1,1.88,2.36l14.05,30.12a94.75,94.75,0,0,1-5,9.29,9.58,9.58,0,0,1-3.06,3,6,6,0,0,1-3,1c-.81,0-1.21-.31-1.21-1a3.9,3.9,0,0,1,.15-.87,5.76,5.76,0,0,0,.16-1.17,3.17,3.17,0,0,0-1-2.38,3.48,3.48,0,0,0-2.52-1,3.64,3.64,0,0,0-2.77,1.14,4.06,4.06,0,0,0-1.11,2.93,5.21,5.21,0,0,0,1.8,4,6.84,6.84,0,0,0,4.77,1.62,11.51,11.51,0,0,0,7.63-3.08q3.51-3.06,7-11.16l13.7-31.9c1-2.37,3-3.69,6-4V123Z"/><path d="M184.75,154.24a5.6,5.6,0,0,1-4.58,2.48,4.69,4.69,0,0,1-3.71-1.64,6.81,6.81,0,0,1-1.45-4.72V126.61h12V123H175v-15.1h-2.65c-.21,5.28-1.42,9.36-3.7,12.3a10.29,10.29,0,0,1-6.71,3.66v2.78h6.45v24.87A8.77,8.77,0,0,0,171,158a9.88,9.88,0,0,0,7.19,2.52,10.22,10.22,0,0,0,8.09-3.58q3.12-3.57,3.37-11H187Q186.65,151.76,184.75,154.24Z"/><path d="M136.89,151.48a8.71,8.71,0,0,0,2.6,6.56,9.79,9.79,0,0,0,7.17,2.52,10.21,10.21,0,0,0,8.09-3.58q3.12-3.57,3.37-11h-2.65c-.22,3.83-.95,6.57-2.21,8.23a5.62,5.62,0,0,1-4.59,2.48,4.74,4.74,0,0,1-3.72-1.64,6.86,6.86,0,0,1-1.45-4.72V126.61h12V123h-12v-15.1h-2.65c-.18,5.28-1.42,9.36-3.7,12.3a10.27,10.27,0,0,1-6.69,3.66v2.78h6.43Z"/><path d="M123.1,148.77c-3.15,5.89-7.28,8.83-12.45,8.83a11,11,0,0,1-8.66-3.91c-2-2.33-3-6.3-3.17-11.95h26.52a27.19,27.19,0,0,0-1.45-9.17,16.9,16.9,0,0,0-5.89-7.94,15.7,15.7,0,0,0-9.28-2.76,16,16,0,0,0-12.33,5.54q-5,5.57-5,14.58,0,8.38,5.07,13.76A16.56,16.56,0,0,0,109,161.11q10.91,0,16.68-11.21Zm-21.29-20.86a8.62,8.62,0,0,1,7-3.67,8.29,8.29,0,0,1,6.38,3,10.81,10.81,0,0,1,2.71,7.4,5.3,5.3,0,0,1-.8,3.31,2.69,2.69,0,0,1-2.2,1H98.82Q99,131.59,101.81,127.91Z"/><path d="M83,101.54v-8a6.67,6.67,0,0,0,2.66-5.35,6.75,6.75,0,1,0-11,5.27v8.09h-9.8v3h5.18a6.29,6.29,0,0,1,3.57.76,2.75,2.75,0,0,1,1,2.33V145c0,4.08-.94,7.25-2.85,9.54A9.59,9.59,0,0,1,64.07,158a11.3,11.3,0,0,1-7.33-2.42q-3-2.44-3-5.39a2.74,2.74,0,0,1,.44-1.68,1.2,1.2,0,0,1,1.06-.55,6.39,6.39,0,0,1,1.42.32,7,7,0,0,0,2,.39,4.31,4.31,0,0,0,3.27-1.56,5.51,5.51,0,0,0,1.42-3.84,6,6,0,0,0-1.72-4.39,6.11,6.11,0,0,0-4.44-1.7,7,7,0,0,0-5.53,2.65,10.6,10.6,0,0,0-2.26,7.06A13.17,13.17,0,0,0,53.88,157a16.23,16.23,0,0,0,11.5,4.14A20.47,20.47,0,0,0,74.67,159a14.62,14.62,0,0,0,8.38-13.54V107.6a2.93,2.93,0,0,1,.92-2.31,4.9,4.9,0,0,1,3.12-.78h3.68v-3Zm-4.14-9.28a4.09,4.09,0,1,1,4.08-4.08A4.09,4.09,0,0,1,78.86,92.26Z"/></g></g></svg>