<?xml version="1.0" encoding="UTF-8"?>
<!DOCTYPE svg PUBLIC "-//W3C//DTD SVG 1.1//EN" "http://www.w3.org/Graphics/SVG/1.1/DTD/svg11.dtd">
<!-- Creator: CorelDRAW 2018 (64-Bit) -->
<svg xmlns="http://www.w3.org/2000/svg" xml:space="preserve" width="9px" height="11px" version="1.1" style="shape-rendering:geometricPrecision; text-rendering:geometricPrecision; image-rendering:optimizeQuality; fill-rule:evenodd; clip-rule:evenodd"
viewBox="0 0 10.07 12.31"
 xmlns:xlink="http://www.w3.org/1999/xlink">
 <defs>
  <style type="text/css">
   <![CDATA[
    .fil0 {fill:red;fill-rule:nonzero}
   ]]>
  </style>
 </defs>
 <g id="Слой_x0020_1">
  <metadata id="CorelCorpID_0Corel-Layer"/>
  <path class="fil0" d="M9.71 6.14c-0.21,0.43 -0.37,0.75 -0.49,0.95 -1.12,1.88 -2.6,3.62 -4.16,5.21 -0.01,0.01 -0.03,0.01 -0.04,0 -1.17,-1.19 -2.24,-2.43 -3.21,-3.74 -0.57,-0.78 -1.15,-1.7 -1.53,-2.61 -0.19,-0.47 -0.3,-0.95 -0.28,-1.45 0.12,-2.89 3.03,-4.98 6.06,-4.4 2.04,0.39 3.57,1.89 3.94,3.79 0.15,0.76 0.05,1.51 -0.29,2.25zm-2.76 -1.53c0,-0.98 -0.86,-1.78 -1.91,-1.78 -1.06,0 -1.91,0.8 -1.91,1.78 0,0.98 0.85,1.77 1.91,1.77 1.05,0 1.91,-0.79 1.91,-1.77z"/>
 </g>
</svg>
