<?xml version="1.0" encoding="UTF-8"?>
<!DOCTYPE svg PUBLIC "-//W3C//DTD SVG 1.1//EN" "http://www.w3.org/Graphics/SVG/1.1/DTD/svg11.dtd">
<!-- Creator: CorelDRAW 2018 (64-Bit) -->
<svg xmlns="http://www.w3.org/2000/svg" xml:space="preserve" width="33px" height="27px" version="1.1" style="shape-rendering:geometricPrecision; text-rendering:geometricPrecision; image-rendering:optimizeQuality; fill-rule:evenodd; clip-rule:evenodd"
viewBox="0 0 36.41 29.79"
 xmlns:xlink="http://www.w3.org/1999/xlink">
 <defs>
  <style type="text/css">
   <![CDATA[
    .fil0 {fill:black;fill-rule:nonzero}
   ]]>
  </style>
 </defs>
 <g id="Слой_x0020_1">
  <metadata id="CorelCorpID_0Corel-Layer"/>
  <path class="fil0" d="M17.39 0l1.67 0c3.64,0.08 7.5,0.51 10.9,1.85 1.11,0.44 2.39,1.13 3.05,2.11 1.24,1.83 -1.46,3.3 -2.72,3.83 -2.65,1.12 -5.56,1.65 -8.41,1.86 -4.93,0.36 -10.19,0.13 -14.89,-1.55 -1.4,-0.5 -5.11,-2.24 -3.32,-4.36 0.74,-0.86 1.8,-1.43 2.83,-1.84 3.41,-1.37 7.25,-1.83 10.89,-1.9zm-8.41 7.1c0.92,0.24 1.86,0.42 2.81,0.56 0.03,0 0.06,-0.01 0.08,-0.03l5.98 -6.27c0.02,-0.02 0.02,-0.03 -0.01,-0.03 -0.98,0.01 -1.97,0.04 -2.95,0.11 -0.05,0.01 -0.1,0.03 -0.14,0.06l-5.79 5.55c-0.03,0.03 -0.02,0.04 0.02,0.05zm6.16 0.9c0.83,0.05 1.65,0.08 2.46,0.09 0.03,0.01 0.07,-0.01 0.09,-0.04l6.1 -6.38c0.04,-0.05 0.03,-0.07 -0.02,-0.08 -0.97,-0.1 -1.93,-0.17 -2.9,-0.22 -0.02,0 -0.04,0.02 -0.06,0.04l-5.96 6.53c-0.03,0.03 -0.03,0.05 0.02,0.05 0.09,0 0.18,0 0.27,0.01zm-9.66 -3.65c-0.24,0.73 0.31,1.39 0.92,1.72 0.02,0.01 0.05,0.01 0.07,-0.01l4.58 -4.11c0.07,-0.05 0.06,-0.08 -0.02,-0.06 -1.33,0.21 -5.05,0.92 -5.55,2.46zm20.99 -2.3l-5.48 5.99c-0.02,0.03 -0.01,0.04 0.02,0.04 0.95,-0.05 1.89,-0.12 2.83,-0.22 0.03,-0.01 0.07,-0.02 0.09,-0.05l4.87 -5.06c0.01,-0.01 0,-0.03 -0.02,-0.03 -0.72,-0.25 -1.47,-0.49 -2.22,-0.69 -0.03,-0.01 -0.07,-0.01 -0.09,0.02zm0.73 5.2c-0.03,0.04 -0.02,0.05 0.04,0.04 1.1,-0.26 4.21,-1.01 4.28,-2.53 0.02,-0.55 -0.37,-1.01 -0.8,-1.3 -0.02,-0.01 -0.05,0 -0.06,0.01l-3.46 3.78z"/>
  <path class="fil0" d="M36.41 8.57l0 0.49c-0.4,1.31 -2.57,1.73 -3.69,2.02 -0.02,0 -0.04,0.02 -0.04,0.04 -1.22,2.98 -3.2,5.65 -5.94,7.38 -0.02,0.01 -0.03,0.03 -0.02,0.04 1.34,3.17 2.67,6.34 3.99,9.49 0.12,0.27 0.17,0.48 0.17,0.65 -0.01,0.58 -0.46,1.04 -1.04,1.11l-0.14 0c-0.59,-0.07 -0.82,-0.39 -1.06,-0.95 -1.31,-3.11 -2.62,-6.21 -3.92,-9.32 -0.01,-0.02 -0.03,-0.03 -0.06,-0.02 -4.04,1.6 -8.54,1.64 -12.6,0.07 -0.04,-0.01 -0.08,0.01 -0.1,0.04 -1.31,3.14 -2.63,6.28 -3.96,9.43 -0.18,0.44 -0.51,0.69 -0.98,0.75l-0.15 0c-0.67,-0.13 -1.02,-0.53 -1.02,-1.2 0,-0.23 0.12,-0.47 0.21,-0.69 1.31,-3.1 2.61,-6.19 3.91,-9.29 0.01,-0.02 0.01,-0.03 -0.01,-0.04 -2.82,-1.67 -4.93,-4.5 -6.14,-7.56 -0.01,-0.02 -0.02,-0.03 -0.05,-0.04 -1.05,-0.3 -2.15,-0.63 -3.09,-1.25 -0.38,-0.24 -0.6,-0.58 -0.68,-1.01l0 -0.11c0.14,-1.15 1.89,-2 2.83,-2.4 0.02,0 0.04,0 0.05,0.02 0.9,1.19 2.19,1.92 3.57,2.46 2.16,0.84 4.51,1.32 6.8,1.58 3.36,0.38 6.7,0.38 10.02,0.01 2.24,-0.25 4.54,-0.72 6.68,-1.54 1.41,-0.53 2.8,-1.28 3.72,-2.52 0.01,-0.01 0.03,-0.02 0.04,-0.01 1.04,0.48 2.31,1.24 2.7,2.37zm-34.1 -1.35c-0.41,0.24 -1.09,0.77 -1.15,1.27 -0.1,0.84 1.39,1.18 1.98,1.29 0.03,0.01 0.04,0 0.02,-0.03 -0.42,-0.75 -0.65,-1.65 -0.78,-2.49 0,-0.04 -0.04,-0.06 -0.07,-0.04zm32 0.07c-0.11,0.89 -0.37,1.74 -0.79,2.54 -0.01,0.01 0,0.02 0.03,0.02 0.62,-0.11 2.45,-0.52 1.86,-1.59 -0.22,-0.41 -0.66,-0.74 -1.04,-0.99 -0.03,-0.01 -0.06,-0.01 -0.06,0.02z"/>
 </g>
</svg>
