<?xml version="1.0" encoding="UTF-8"?>
<!DOCTYPE svg PUBLIC "-//W3C//DTD SVG 1.1//EN" "http://www.w3.org/Graphics/SVG/1.1/DTD/svg11.dtd">
<!-- Creator: CorelDRAW 2018 (64-Bit) -->
<svg xmlns="http://www.w3.org/2000/svg" xml:space="preserve" width="42px" height="27px" version="1.1" style="shape-rendering:geometricPrecision; text-rendering:geometricPrecision; image-rendering:optimizeQuality; fill-rule:evenodd; clip-rule:evenodd"
viewBox="0 0 43.65 28.06"
 xmlns:xlink="http://www.w3.org/1999/xlink">
 <defs>
  <style type="text/css">
   <![CDATA[
    .fil0 {fill:#1D1D1B;fill-rule:nonzero}
   ]]>
  </style>
 </defs>
 <g id="Слой_x0020_1">
  <metadata id="CorelCorpID_0Corel-Layer"/>
  <path class="fil0" d="M40.64 8.14c0.04,-0.04 0.02,-0.06 -0.05,-0.06 -12.57,-0.02 -25.15,-0.02 -37.73,0.01 -0.05,0 -0.09,0.02 -0.1,0.05 -0.04,0.01 -0.08,0.01 -0.11,-0.01 -0.02,-0.01 -0.04,-0.04 -0.04,-0.07 0,-0.23 -0.04,-0.43 0.09,-0.65 0.19,-0.34 0.38,-0.68 0.57,-1.02 0.75,-1.35 1.53,-2.69 2.3,-4.04 0.6,-1.06 2.46,-1.68 3.85,-1.95 3.73,-0.72 7.52,-0.54 10.81,1.1 1.12,0.56 2.24,1.12 3.36,1.68 1.44,0.72 3,1.18 4.67,1.37 0.41,0.05 1.08,0.08 2.01,0.1 1.81,0.02 3.51,0.12 5.29,0.4 1.7,0.26 4.85,0.9 5.57,2.17 0.14,0.25 0.08,0.56 0.1,0.84 0,0.05 -0.04,0.08 -0.09,0.08l-0.5 0z"/>
  <path class="fil0" d="M41.21 8.81c0,1.69 0.01,3.38 0.02,5.07 0.01,0.15 0.04,0.29 0.11,0.43 0.76,1.46 1.5,2.93 2.22,4.4 0.12,0.23 0.08,0.42 0.08,0.67l-2.05 0.06 -1.1 0.01c-0.03,0.01 -0.05,-0.01 -0.05,-0.04 -0.01,-0.41 0.08,-0.93 -0.1,-1.32 -0.52,-1.13 -1.04,-2.26 -1.56,-3.38 -0.01,-0.03 -0.04,-0.05 -0.06,-0.05l-1.34 0.02c-0.04,0 -0.07,0.02 -0.06,0.05 0.48,1.18 0.95,2.36 1.41,3.54 0.15,0.39 0.12,0.74 0.1,1.13 0,0.04 -0.02,0.06 -0.04,0.06l-0.71 0c-0.02,0 -0.05,-0.03 -0.05,-0.06 -0.04,-0.36 0.03,-0.72 -0.1,-1.07 -0.48,-1.21 -0.96,-2.42 -1.45,-3.63 -0.01,-0.02 -0.05,-0.03 -0.1,-0.03l-0.62 -0.01c-0.05,0 -0.09,0.04 -0.08,0.07 0.16,0.33 0.35,0.65 0.36,1.01 0,0.28 0,0.56 0,0.84 0,0.14 -0.09,0.14 -0.24,0.11 -0.06,-0.01 -0.12,0.04 -0.1,0.09 0.15,0.46 0.31,0.92 0.47,1.39 0.15,0.43 0.13,0.81 0.11,1.23 0,0.03 -0.02,0.06 -0.04,0.06l-0.71 0c-0.03,0 -0.05,-0.03 -0.05,-0.06 -0.04,-0.39 0.02,-0.76 -0.1,-1.14 -0.18,-0.51 -0.35,-1.02 -0.52,-1.53 -0.01,-0.02 -0.05,-0.04 -0.11,-0.04l-0.25 0c-0.02,0 -0.04,-0.03 -0.04,-0.06 -0.02,-0.39 0.02,-0.75 -0.1,-1.12 -0.09,-0.26 -0.18,-0.53 -0.27,-0.79 -0.01,-0.03 -0.04,-0.05 -0.07,-0.05l-0.56 0c-0.09,0 -0.16,0.07 -0.13,0.14 0.07,0.16 0.13,0.33 0.18,0.5 0.13,0.42 0.08,0.88 0.08,1.31 0,0.04 -0.02,0.07 -0.05,0.07l-0.16 0.02c-0.07,0 -0.12,0.04 -0.11,0.08 0.25,0.86 0.58,1.72 0.46,2.62 0,0.02 -0.02,0.05 -0.04,0.05l-0.71 0c-0.02,0 -0.04,-0.03 -0.04,-0.05 -0.02,-0.42 0.02,-0.8 -0.09,-1.21 -0.14,-0.48 -0.27,-0.96 -0.4,-1.44 -0.01,-0.03 -0.07,-0.05 -0.16,-0.06l-0.25 -0.02c-0.01,0 -0.02,-0.04 -0.02,-0.1 0,-0.18 0,-0.37 0,-0.55 0,-0.44 -0.19,-0.88 -0.3,-1.3 -0.02,-0.04 -0.06,-0.07 -0.12,-0.06l-0.54 0c-0.03,0 -0.05,0.02 -0.05,0.05 0.21,0.63 0.28,1.27 0.21,1.92 0,0.03 -0.02,0.06 -0.04,0.06l-0.24 0c-0.06,0 -0.12,0.03 -0.11,0.06 0.1,0.48 0.2,0.95 0.31,1.42 0.09,0.42 0.08,0.8 0.07,1.22 0,0.03 -0.02,0.06 -0.05,0.06l-0.71 0c-0.02,0 -0.04,-0.03 -0.04,-0.07 -0.02,-0.35 0.01,-0.69 -0.05,-1.03 -0.11,-0.54 -0.22,-1.08 -0.35,-1.62 -0.01,-0.03 -0.03,-0.05 -0.06,-0.05l-0.23 0.01c-0.03,0.01 -0.05,-0.02 -0.05,-0.06 0.03,-0.64 -0.06,-1.28 -0.26,-1.91 -0.01,-0.03 -0.05,-0.06 -0.09,-0.06l-1.17 0c-0.04,0 -0.07,0.02 -0.07,0.05 0.2,1.28 0.39,2.57 0.57,3.86 0.04,0.28 0.04,0.56 0,0.83 0,0.03 -0.05,0.06 -0.12,0.06l-0.48 -0.01c-0.09,0 -0.17,-0.04 -0.17,-0.09 -0.02,-1.54 -0.35,-3.09 -0.59,-4.64 -0.01,-0.03 -0.04,-0.06 -0.07,-0.06l-0.76 0c-0.02,0 -0.04,0.03 -0.04,0.06 0.07,0.64 0.09,1.27 0.06,1.91 0,0.04 -0.02,0.06 -0.04,0.06l-0.31 0c-0.1,0 -0.17,0.06 -0.17,0.12 0.07,0.67 0.14,1.3 0.19,1.9 0.03,0.23 0.02,0.46 -0.02,0.69 -0.01,0.03 -0.03,0.04 -0.05,0.04l-0.67 0.01c-0.04,0 -0.08,-0.02 -0.08,-0.05 -0.01,-0.92 -0.06,-1.79 -0.16,-2.63 0.01,-0.12 -0.05,-0.15 -0.2,-0.08 -0.03,0 -0.05,-0.02 -0.05,-0.06 0.02,-0.63 -0.01,-1.27 -0.09,-1.91 -0.01,-0.04 -0.03,-0.07 -0.06,-0.07l-0.76 0.01c-0.03,0 -0.05,0.03 -0.05,0.06l0 1.91c0,0.03 -0.02,0.06 -0.04,0.06l-0.31 -0.01c-0.04,0 -0.07,0.02 -0.07,0.05l0.07 2.56c0,0.1 -0.06,0.16 -0.18,0.16l-0.53 0c-0.05,0 -0.08,-0.04 -0.09,-0.08l-0.07 -2.66c0,-0.02 -0.04,-0.03 -0.09,-0.03l-0.21 0.01c-0.03,0 -0.05,-0.04 -0.05,-0.08l0 -1.89c0,-0.04 -0.03,-0.06 -0.07,-0.06l-0.99 0c-0.09,0 -0.17,0.04 -0.17,0.1l-0.12 4.63c0,0.03 -0.02,0.06 -0.04,0.06l-0.65 0c-0.06,0 -0.1,-0.03 -0.1,-0.06l0.11 -4.59c0.01,-0.08 -0.07,-0.14 -0.17,-0.14l-0.93 0c-0.02,0 -0.04,0.02 -0.05,0.04 -0.11,0.64 -0.15,1.29 -0.12,1.93 0,0.03 -0.02,0.05 -0.05,0.05l-0.23 0.01c-0.07,0.01 -0.12,0.03 -0.12,0.05 -0.07,0.65 -0.13,1.27 -0.18,1.87 -0.01,0.23 0.05,0.51 0,0.78 -0.01,0.03 -0.03,0.06 -0.06,0.06l-0.68 0c-0.03,0 -0.05,-0.03 -0.05,-0.07 -0.01,-0.95 0.05,-1.8 0.15,-2.55 0.01,-0.08 -0.01,-0.12 -0.07,-0.14 -0.01,-0.01 -0.05,-0.01 -0.09,0 -0.06,0.01 -0.11,0.01 -0.15,-0.01 -0.03,-0.01 -0.04,-0.04 -0.04,-0.07 -0.04,-0.63 0,-1.26 0.12,-1.89 0,-0.03 -0.02,-0.05 -0.05,-0.06l-0.67 -0.01c-0.02,0 -0.04,0.02 -0.05,0.05 -0.19,0.59 -0.3,1.24 -0.22,1.85 0.02,0.15 -0.06,0.2 -0.24,0.15 -0.08,-0.03 -0.16,0.01 -0.17,0.07 -0.06,0.48 -0.13,0.94 -0.2,1.37 -0.07,0.43 -0.06,0.83 -0.07,1.25 -0.01,0.03 -0.02,0.06 -0.05,0.06l-0.7 0c-0.02,0 -0.04,-0.03 -0.04,-0.06 -0.04,-0.88 0.11,-1.7 0.27,-2.59 0.01,-0.05 -0.05,-0.1 -0.13,-0.1l-0.22 -0.03c-0.01,0 -0.02,-0.03 -0.02,-0.08 -0.05,-0.61 0,-1.23 0.17,-1.83 0.01,-0.05 -0.06,-0.1 -0.14,-0.1l-0.47 -0.01c-0.03,0 -0.06,0.02 -0.07,0.03 -0.23,0.58 -0.33,1.18 -0.29,1.78 0.01,0.18 -0.03,0.32 -0.32,0.22 -0.05,-0.02 -0.11,0.01 -0.12,0.05 -0.14,0.59 -0.27,1.18 -0.38,1.77 -0.06,0.29 -0.02,0.59 -0.03,0.89 -0.01,0.03 -0.03,0.06 -0.06,0.06l-0.67 -0.01c-0.02,0 -0.04,-0.02 -0.04,-0.05 -0.06,-0.84 0.1,-1.5 0.36,-2.58 0.03,-0.11 -0.05,-0.16 -0.23,-0.13 -0.03,0.01 -0.06,-0.01 -0.06,-0.03 -0.11,-0.62 -0.04,-1.22 0.19,-1.81 0.05,-0.12 -0.01,-0.18 -0.18,-0.18l-0.73 0c-0.03,0 -0.05,0.02 -0.05,0.04 -0.34,1.21 -0.67,2.42 -0.99,3.63 -0.1,0.35 -0.08,0.69 -0.06,1.04 0,0.04 -0.04,0.07 -0.09,0.07l-0.61 0.02c-0.06,0 -0.12,-0.04 -0.12,-0.09 0,-0.37 -0.03,-0.72 0.07,-1.09 0.33,-1.19 0.66,-2.39 0.99,-3.58 0.01,-0.03 -0.02,-0.05 -0.06,-0.05l-1.18 0.01c-0.06,0.01 -0.1,0.03 -0.12,0.06 -0.14,0.38 -0.28,0.76 -0.4,1.12 -0.03,0.09 -0.03,0.35 0,0.77 0.01,0.04 -0.01,0.08 -0.03,0.08l-0.27 0c-0.05,0 -0.09,0.02 -0.1,0.03 -0.18,0.52 -0.36,1.03 -0.53,1.54 -0.12,0.38 -0.1,0.73 -0.08,1.11 0.01,0.04 -0.03,0.08 -0.09,0.08l-0.68 0c-0.02,0 -0.04,-0.03 -0.04,-0.05 -0.01,-0.41 -0.05,-0.78 0.09,-1.18 0.15,-0.47 0.32,-0.96 0.49,-1.45 0.01,-0.04 -0.03,-0.07 -0.08,-0.08l-0.21 -0.01c-0.03,0 -0.04,-0.03 -0.04,-0.07 0,-0.3 0,-0.61 -0.01,-0.91 0,-0.34 0.21,-0.65 0.35,-0.98 0.02,-0.03 -0.01,-0.07 -0.06,-0.06l-0.61 0c-0.05,0 -0.1,0.03 -0.11,0.07 -0.11,0.27 -0.22,0.54 -0.33,0.81 -0.14,0.36 -0.09,0.71 -0.1,1.08 0,0.04 -0.02,0.06 -0.04,0.07l-0.28 0c-0.03,0.01 -0.06,0.02 -0.07,0.04 -0.21,0.52 -0.42,1.04 -0.62,1.55 -0.14,0.38 -0.09,0.73 -0.1,1.11 0,0.03 -0.03,0.06 -0.07,0.06l-0.71 0c-0.03,0 -0.05,-0.02 -0.05,-0.05 0,-0.36 -0.05,-0.73 0.09,-1.08 0.2,-0.5 0.39,-1 0.6,-1.5 0.05,-0.13 0,-0.16 -0.17,-0.12 -0.07,0.02 -0.14,-0.02 -0.14,-0.07 -0.02,-0.3 -0.03,-0.61 -0.01,-0.92 0.03,-0.36 0.22,-0.64 0.43,-0.95 0.03,-0.04 -0.01,-0.1 -0.07,-0.1l-0.6 0c-0.04,0 -0.07,0.02 -0.08,0.05 -0.51,1.12 -1.02,2.25 -1.54,3.37 -0.18,0.37 -0.1,0.82 -0.11,1.21 -0.03,0.08 -0.09,0.12 -0.17,0.12 -0.85,0.02 -1.92,0.01 -3.23,-0.03 -0.01,-0.26 -0.04,-0.46 0.09,-0.7 0.8,-1.48 1.6,-2.96 2.41,-4.44 0.06,-0.12 0.1,-0.25 0.1,-0.39 0,-1.65 0,-3.3 0,-4.95 0.09,-0.02 0.13,-0.05 0.14,-0.1 0,-0.04 0.05,-0.07 0.1,-0.07 10.73,0.02 21.4,0.02 32,0.01 2.01,0 4.03,-0.03 6.05,-0.01 0.13,0 0.23,0.03 0.31,0.07z"/>
  <path class="fil0" d="M0.14 20.04l43.17 0.01 0.33 0.05 -0.01 1.67c0,0.03 -0.03,0.05 -0.06,0.05l-2.3 0c-0.03,0 -0.05,0.02 -0.05,0.04l0 6.13c0,0.04 -0.05,0.07 -0.11,0.07l-1.33 -0.01c-0.07,0 -0.12,-0.03 -0.13,-0.08l-1.84 -6.1c-0.01,-0.03 -0.04,-0.05 -0.09,-0.05l-31.6 0c-0.04,0 -0.07,0.02 -0.07,0.04l-1.83 6.07c-0.03,0.09 -0.1,0.13 -0.22,0.13l-1.29 -0.01c-0.06,-0.01 -0.1,-0.04 -0.1,-0.08l0 -6.09c0,-0.03 -0.03,-0.06 -0.08,-0.06l-2.47 0c-0.03,0 -0.05,-0.02 -0.05,-0.04l0 -1.66c0.07,0 0.11,-0.02 0.13,-0.08z"/>
 </g>
</svg>
