<?xml version="1.0" encoding="UTF-8"?>
<!DOCTYPE svg PUBLIC "-//W3C//DTD SVG 1.1//EN" "http://www.w3.org/Graphics/SVG/1.1/DTD/svg11.dtd">
<!-- Creator: CorelDRAW 2018 (64-Bit) -->
<svg xmlns="http://www.w3.org/2000/svg" xml:space="preserve" width="51px" height="27px" version="1.1" style="shape-rendering:geometricPrecision; text-rendering:geometricPrecision; image-rendering:optimizeQuality; fill-rule:evenodd; clip-rule:evenodd"
viewBox="0 0 56.94 30.18"
 xmlns:xlink="http://www.w3.org/1999/xlink">
 <defs>
  <style type="text/css">
   <![CDATA[
    .fil0 {fill:black;fill-rule:nonzero}
   ]]>
  </style>
 </defs>
 <g id="РЎР_x00bb_РѕР_x2116__x0020_1">
  <metadata id="CorelCorpID_0Corel-Layer"/>
  <path class="fil0" d="M19.76 3.69c-0.12,-2.06 -5.2,0.33 -6.19,0.68 -0.3,0.1 -0.65,0.01 -0.91,-0.24 -1.29,-1.25 -3.82,0.26 -4.11,-0.8 -0.08,-0.29 0.17,-0.63 0.57,-0.76 7.36,-2.64 14.18,-3.25 20.45,-1.82 4.49,1.03 7.51,1.65 9.08,1.86 0.69,0.09 1.58,0.63 -0.01,0.94 -8.07,1.51 -15.85,3.95 -23.34,7.32 -0.4,0.18 -0.84,0.04 -0.95,-0.3l-1.06 -3.43c-0.09,-0.29 0.17,-0.64 0.59,-0.78l5.27 -1.78c0.39,-0.12 0.64,-0.49 0.61,-0.89z"/>
  <path class="fil0" d="M25.36 21.53c-8.68,-2.66 -16.84,-1.76 -24.48,2.71 -0.35,0.21 -0.77,0.13 -0.77,-0.14l-0.11 -4.29c0,-0.22 0.34,-0.53 0.85,-0.78 15.55,-7.78 38.12,-16.47 55.69,-15.36 0.31,0.02 0.49,0.34 0.35,0.6l-8.57 16.41c-0.78,1.48 -1.98,2.31 -3.59,2.48 -6.98,0.73 -13.45,0.19 -19.37,-1.63zm6.7 -9.12l0 0c0,-0.87 -0.71,-1.58 -1.58,-1.58 -0.87,0 -1.58,0.71 -1.58,1.58 0,0.87 0.71,1.57 1.58,1.57 0.87,0 1.58,-0.7 1.58,-1.57zm-4.91 1.57l0 0c0,-0.85 -0.7,-1.55 -1.55,-1.55 -0.86,0 -1.56,0.7 -1.56,1.55 0,0.86 0.7,1.56 1.56,1.56 0.85,0 1.55,-0.7 1.55,-1.56zm-4.71 1.57l0 0c0,-0.86 -0.69,-1.54 -1.55,-1.54 -0.86,0 -1.54,0.68 -1.54,1.54 0,0.86 0.68,1.54 1.54,1.54 0.86,0 1.55,-0.68 1.55,-1.54z"/>
  <path class="fil0" d="M20.99 22.23c12.32,2.77 20.11,5.01 31.18,-0.51 0.45,-0.21 0.65,-0.13 0.62,0.24 -0.01,0.23 -0.17,0.48 -0.43,0.66 -8.15,5.29 -16.5,6.57 -25.06,3.81 -8.79,-2.83 -16.93,-3.16 -24.43,-0.97 -0.28,0.08 -0.53,0.07 -0.68,-0.06 -0.22,-0.17 -0.11,-0.36 0.31,-0.57 6.1,-3.14 12.25,-4.01 18.49,-2.6z"/>
  <path class="fil0" d="M24.48 28.23c1.6,0.25 3.2,0.35 5.76,0.4 0.86,0.01 1.55,-0.08 1.55,0.3 0.14,0.8 -3.46,1.31 -6.58,1.25 -2.38,-0.05 -4.28,-0.42 -6.03,-0.87 -4.79,-1.26 -8.4,-3.15 -17.34,-0.62 -1.49,0.42 0.13,-0.82 0.36,-0.93 4.09,-2.03 8.17,-2.68 12.23,-1.96 3.07,0.56 7.11,1.99 10.05,2.43z"/>
 </g>
</svg>
